<?xml version="1.0" encoding="UTF-8"?>
<svg width="32px" height="32px" viewBox="0 0 32 32" version="1.1" xmlns="http://www.w3.org/2000/svg" xmlns:xlink="http://www.w3.org/1999/xlink">
    <style>
        @media (prefers-color-scheme: dark) {
            .icon-path {
                fill: #f9f7f2;
            }

            .semi-path {
                opacity: 0.45;
            }
        }
    </style>
    <path class="icon-path semi-path" d="M16,10.3111111 C14.4290567,10.3111111 13.1555556,9.03760996 13.1555556,7.46666667 C13.1555556,5.89572338 14.4290567,4.62222222 16,4.62222222 C17.5709433,4.62222222 18.8444444,5.89572338 18.8444444,7.46666667 C18.8444444,9.03760996 17.5709433,10.3111111 16,10.3111111 Z M3.2,24.5333333 L28.8,24.5333333 C29.5854716,24.5333333 30.2222222,25.170084 30.2222222,25.9555556 C30.2222222,26.7410271 29.5854716,27.3777778 28.8,27.3777778 L3.2,27.3777778 C2.41452836,27.3777778 1.77777778,26.7410271 1.77777778,25.9555556 C1.77777778,25.170084 2.41452836,24.5333333 3.2,24.5333333 Z" fill="#383E7A" fill-rule="nonzero" opacity="0.3"></path>
    <path class="icon-path" d="M28.8,21.6888889 C28.8,14.6196442 23.0692447,8.88888889 16,8.88888889 C8.9307552,8.88888889 3.2,14.6196442 3.2,21.6888889 C3.2,21.6888889 28.8,21.6888889 28.8,21.6888889 Z" fill="#383E7A" fill-rule="nonzero"></path>
</svg>
