<?xml version="1.0" encoding="UTF-8"?>
<svg width="32px" height="32px" viewBox="0 0 32 32" version="1.1" xmlns="http://www.w3.org/2000/svg" xmlns:xlink="http://www.w3.org/1999/xlink">
    <style>
        @media (prefers-color-scheme: dark) {
            .icon-path {
                fill: #f9f7f2;
            }

            .semi-path {
                opacity: 0.45;
            }
        }
    </style>
    <path class="icon-path semi-path" d="M15.0027778,24.5332222 L17.8467778,27.3772222 L3.2,27.3777778 C2.41452836,27.3777778 1.77777778,26.7410271 1.77777778,25.9555556 C1.77777778,25.170084 2.41452836,24.5333333 3.2,24.5333333 L15.0027778,24.5332222 Z M30.2222222,25.9555556 C30.2222222,26.7410271 29.5854716,27.3777778 28.8,27.3777778 L27.3867778,27.3772222 L29.8101449,24.9543945 C30.0648814,25.2114025 30.2222222,25.5651046 30.2222222,25.9555556 Z M16,4.62222222 C17.5709433,4.62222222 18.8444444,5.89572338 18.8444444,7.46666667 C18.8444444,9.03760996 17.5709433,10.3111111 16,10.3111111 C14.4290567,10.3111111 13.1555556,9.03760996 13.1555556,7.46666667 C13.1555556,5.89572338 14.4290567,4.62222222 16,4.62222222 Z" fill="#383E7A" fill-rule="nonzero" opacity="0.3"></path>
    <path class="icon-path" d="M16,8.88888889 C21.6177051,8.88888889 26.3901571,12.5078482 28.1131793,17.5415904 L23.964,21.6888889 L20.746,21.6888889 L18.3327318,19.2752977 L15.918,21.6888889 L3.2,21.6888889 C3.2,14.722097 8.76585004,9.05527887 15.6934983,8.89248658 Z" fill="#383E7A" fill-rule="nonzero"></path>
    <path d="M31.6116527,19.9177366 L23.1316527,28.3977366 C23.056546,28.4734617 22.9543077,28.516056 22.8476527,28.516056 C22.7409976,28.516056 22.6387593,28.4734617 22.5636527,28.3977366 L18.2516527,24.0857366 C18.1759276,24.01063 18.1333333,23.9083917 18.1333333,23.8017366 C18.1333333,23.6950816 18.1759276,23.5928433 18.2516527,23.5177366 L18.8116527,22.9577366 C18.8867593,22.8820116 18.9889976,22.8394173 19.0956527,22.8394173 C19.2023077,22.8394173 19.304546,22.8820116 19.3796527,22.9577366 L22.8436527,26.4217366 L30.4836527,18.7817366 C30.6419036,18.62831 30.8934017,18.62831 31.0516527,18.7817366 L31.6116527,19.3497366 C31.6873777,19.4248433 31.729972,19.5270816 31.729972,19.6337366 C31.729972,19.7403917 31.6873777,19.84263 31.6116527,19.9177366 Z" fill="#1DDD63" fill-rule="nonzero"></path>
</svg>
